# JARVIS smart-glasses concept model
# Front faces toward positive Z; viewer's right is positive X.
mtllib JARVIS_Glasses.mtl
v -2.31000 -0.67000 0.01750
v -0.33000 -0.67000 0.01750
v -0.33000 0.67000 0.01750
v -2.31000 0.67000 0.01750
v -2.31000 -0.67000 0.06250
v -0.33000 -0.67000 0.06250
v -0.33000 0.67000 0.06250
v -2.31000 0.67000 0.06250
v -2.46000 0.68000 0.04500
v -0.18000 0.68000 0.04500
v -0.18000 0.90000 0.04500
v -2.46000 0.90000 0.04500
v -2.46000 0.68000 0.29500
v -0.18000 0.68000 0.29500
v -0.18000 0.90000 0.29500
v -2.46000 0.90000 0.29500
v -2.46000 -0.90000 0.04500
v -0.18000 -0.90000 0.04500
v -0.18000 -0.68000 0.04500
v -2.46000 -0.68000 0.04500
v -2.46000 -0.90000 0.29500
v -0.18000 -0.90000 0.29500
v -0.18000 -0.68000 0.29500
v -2.46000 -0.68000 0.29500
v -2.47000 -0.74000 0.04500
v -2.25000 -0.74000 0.04500
v -2.25000 0.74000 0.04500
v -2.47000 0.74000 0.04500
v -2.47000 -0.74000 0.29500
v -2.25000 -0.74000 0.29500
v -2.25000 0.74000 0.29500
v -2.47000 0.74000 0.29500
v -0.39000 -0.74000 0.04500
v -0.17000 -0.74000 0.04500
v -0.17000 0.74000 0.04500
v -0.39000 0.74000 0.04500
v -0.39000 -0.74000 0.29500
v -0.17000 -0.74000 0.29500
v -0.17000 0.74000 0.29500
v -0.39000 0.74000 0.29500
v 0.33000 -0.67000 0.01750
v 2.31000 -0.67000 0.01750
v 2.31000 0.67000 0.01750
v 0.33000 0.67000 0.01750
v 0.33000 -0.67000 0.06250
v 2.31000 -0.67000 0.06250
v 2.31000 0.67000 0.06250
v 0.33000 0.67000 0.06250
v 0.18000 0.68000 0.04500
v 2.46000 0.68000 0.04500
v 2.46000 0.90000 0.04500
v 0.18000 0.90000 0.04500
v 0.18000 0.68000 0.29500
v 2.46000 0.68000 0.29500
v 2.46000 0.90000 0.29500
v 0.18000 0.90000 0.29500
v 0.18000 -0.90000 0.04500
v 2.46000 -0.90000 0.04500
v 2.46000 -0.68000 0.04500
v 0.18000 -0.68000 0.04500
v 0.18000 -0.90000 0.29500
v 2.46000 -0.90000 0.29500
v 2.46000 -0.68000 0.29500
v 0.18000 -0.68000 0.29500
v 0.17000 -0.74000 0.04500
v 0.39000 -0.74000 0.04500
v 0.39000 0.74000 0.04500
v 0.17000 0.74000 0.04500
v 0.17000 -0.74000 0.29500
v 0.39000 -0.74000 0.29500
v 0.39000 0.74000 0.29500
v 0.17000 0.74000 0.29500
v 2.25000 -0.74000 0.04500
v 2.47000 -0.74000 0.04500
v 2.47000 0.74000 0.04500
v 2.25000 0.74000 0.04500
v 2.25000 -0.74000 0.29500
v 2.47000 -0.74000 0.29500
v 2.47000 0.74000 0.29500
v 2.25000 0.74000 0.29500
v -0.23500 -0.08000 0.02500
v 0.23500 -0.08000 0.02500
v 0.23500 0.16000 0.02500
v -0.23500 0.16000 0.02500
v -0.23500 -0.08000 0.27500
v 0.23500 -0.08000 0.27500
v 0.23500 0.16000 0.27500
v -0.23500 0.16000 0.27500
v -0.37500 -0.33000 -0.11500
v -0.24500 -0.33000 -0.11500
v -0.24500 0.01000 -0.11500
v -0.37500 0.01000 -0.11500
v -0.37500 -0.33000 0.11500
v -0.24500 -0.33000 0.11500
v -0.24500 0.01000 0.11500
v -0.37500 0.01000 0.11500
v 0.24500 -0.33000 -0.11500
v 0.37500 -0.33000 -0.11500
v 0.37500 0.01000 -0.11500
v 0.24500 0.01000 -0.11500
v 0.24500 -0.33000 0.11500
v 0.37500 -0.33000 0.11500
v 0.37500 0.01000 0.11500
v 0.24500 0.01000 0.11500
v -2.66000 -0.14000 -0.11000
v -2.30000 -0.14000 -0.11000
v -2.30000 0.16000 -0.11000
v -2.66000 0.16000 -0.11000
v -2.66000 -0.14000 0.21000
v -2.30000 -0.14000 0.21000
v -2.30000 0.16000 0.21000
v -2.66000 0.16000 0.21000
v -2.67000 0.13490 -0.03489
v -2.47000 0.13490 -0.03489
v -2.47000 -0.11490 -0.02511
v -2.67000 -0.11490 -0.02511
v -2.82000 0.00490 -3.35489
v -2.62000 0.00490 -3.35489
v -2.62000 -0.24490 -3.34511
v -2.82000 -0.24490 -3.34511
v -2.85500 -0.27000 -0.71000
v -2.48500 -0.27000 -0.71000
v -2.48500 0.07000 -0.71000
v -2.85500 0.07000 -0.71000
v -2.85500 -0.27000 -0.23000
v -2.48500 -0.27000 -0.23000
v -2.48500 0.07000 -0.23000
v -2.85500 0.07000 -0.23000
v 2.30000 -0.14000 -0.11000
v 2.66000 -0.14000 -0.11000
v 2.66000 0.16000 -0.11000
v 2.30000 0.16000 -0.11000
v 2.30000 -0.14000 0.21000
v 2.66000 -0.14000 0.21000
v 2.66000 0.16000 0.21000
v 2.30000 0.16000 0.21000
v 2.47000 0.13490 -0.03489
v 2.67000 0.13490 -0.03489
v 2.67000 -0.11490 -0.02511
v 2.47000 -0.11490 -0.02511
v 2.62000 0.00490 -3.35489
v 2.82000 0.00490 -3.35489
v 2.82000 -0.24490 -3.34511
v 2.62000 -0.24490 -3.34511
v 2.48500 -0.27000 -0.71000
v 2.85500 -0.27000 -0.71000
v 2.85500 0.07000 -0.71000
v 2.48500 0.07000 -0.71000
v 2.48500 -0.27000 -0.23000
v 2.85500 -0.27000 -0.23000
v 2.85500 0.07000 -0.23000
v 2.48500 0.07000 -0.23000
v -0.41000 0.55500 0.27500
v 0.41000 0.55500 0.27500
v 0.41000 0.98500 0.27500
v -0.41000 0.98500 0.27500
v -0.41000 0.55500 0.40500
v 0.41000 0.55500 0.40500
v 0.41000 0.98500 0.40500
v -0.41000 0.98500 0.40500
v -0.04000 0.77000 0.38500
v -0.04734 0.81635 0.38500
v -0.06865 0.85817 0.38500
v -0.10183 0.89135 0.38500
v -0.14365 0.91266 0.38500
v -0.19000 0.92000 0.38500
v -0.23635 0.91266 0.38500
v -0.27817 0.89135 0.38500
v -0.31135 0.85817 0.38500
v -0.33266 0.81635 0.38500
v -0.34000 0.77000 0.38500
v -0.33266 0.72365 0.38500
v -0.31135 0.68183 0.38500
v -0.27817 0.64865 0.38500
v -0.23635 0.62734 0.38500
v -0.19000 0.62000 0.38500
v -0.14365 0.62734 0.38500
v -0.10183 0.64865 0.38500
v -0.06865 0.68183 0.38500
v -0.04734 0.72365 0.38500
v -0.04000 0.77000 0.49500
v -0.04734 0.81635 0.49500
v -0.06865 0.85817 0.49500
v -0.10183 0.89135 0.49500
v -0.14365 0.91266 0.49500
v -0.19000 0.92000 0.49500
v -0.23635 0.91266 0.49500
v -0.27817 0.89135 0.49500
v -0.31135 0.85817 0.49500
v -0.33266 0.81635 0.49500
v -0.34000 0.77000 0.49500
v -0.33266 0.72365 0.49500
v -0.31135 0.68183 0.49500
v -0.27817 0.64865 0.49500
v -0.23635 0.62734 0.49500
v -0.19000 0.62000 0.49500
v -0.14365 0.62734 0.49500
v -0.10183 0.64865 0.49500
v -0.06865 0.68183 0.49500
v -0.04734 0.72365 0.49500
v -0.08500 0.77000 0.49250
v -0.09014 0.80245 0.49250
v -0.10505 0.83172 0.49250
v -0.12828 0.85495 0.49250
v -0.15755 0.86986 0.49250
v -0.19000 0.87500 0.49250
v -0.22245 0.86986 0.49250
v -0.25172 0.85495 0.49250
v -0.27495 0.83172 0.49250
v -0.28986 0.80245 0.49250
v -0.29500 0.77000 0.49250
v -0.28986 0.73755 0.49250
v -0.27495 0.70828 0.49250
v -0.25172 0.68505 0.49250
v -0.22245 0.67014 0.49250
v -0.19000 0.66500 0.49250
v -0.15755 0.67014 0.49250
v -0.12828 0.68505 0.49250
v -0.10505 0.70828 0.49250
v -0.09014 0.73755 0.49250
v -0.08500 0.77000 0.51750
v -0.09014 0.80245 0.51750
v -0.10505 0.83172 0.51750
v -0.12828 0.85495 0.51750
v -0.15755 0.86986 0.51750
v -0.19000 0.87500 0.51750
v -0.22245 0.86986 0.51750
v -0.25172 0.85495 0.51750
v -0.27495 0.83172 0.51750
v -0.28986 0.80245 0.51750
v -0.29500 0.77000 0.51750
v -0.28986 0.73755 0.51750
v -0.27495 0.70828 0.51750
v -0.25172 0.68505 0.51750
v -0.22245 0.67014 0.51750
v -0.19000 0.66500 0.51750
v -0.15755 0.67014 0.51750
v -0.12828 0.68505 0.51750
v -0.10505 0.70828 0.51750
v -0.09014 0.73755 0.51750
v 0.34000 0.77000 0.38500
v 0.33266 0.81635 0.38500
v 0.31135 0.85817 0.38500
v 0.27817 0.89135 0.38500
v 0.23635 0.91266 0.38500
v 0.19000 0.92000 0.38500
v 0.14365 0.91266 0.38500
v 0.10183 0.89135 0.38500
v 0.06865 0.85817 0.38500
v 0.04734 0.81635 0.38500
v 0.04000 0.77000 0.38500
v 0.04734 0.72365 0.38500
v 0.06865 0.68183 0.38500
v 0.10183 0.64865 0.38500
v 0.14365 0.62734 0.38500
v 0.19000 0.62000 0.38500
v 0.23635 0.62734 0.38500
v 0.27817 0.64865 0.38500
v 0.31135 0.68183 0.38500
v 0.33266 0.72365 0.38500
v 0.34000 0.77000 0.49500
v 0.33266 0.81635 0.49500
v 0.31135 0.85817 0.49500
v 0.27817 0.89135 0.49500
v 0.23635 0.91266 0.49500
v 0.19000 0.92000 0.49500
v 0.14365 0.91266 0.49500
v 0.10183 0.89135 0.49500
v 0.06865 0.85817 0.49500
v 0.04734 0.81635 0.49500
v 0.04000 0.77000 0.49500
v 0.04734 0.72365 0.49500
v 0.06865 0.68183 0.49500
v 0.10183 0.64865 0.49500
v 0.14365 0.62734 0.49500
v 0.19000 0.62000 0.49500
v 0.23635 0.62734 0.49500
v 0.27817 0.64865 0.49500
v 0.31135 0.68183 0.49500
v 0.33266 0.72365 0.49500
v 0.29500 0.77000 0.49250
v 0.28986 0.80245 0.49250
v 0.27495 0.83172 0.49250
v 0.25172 0.85495 0.49250
v 0.22245 0.86986 0.49250
v 0.19000 0.87500 0.49250
v 0.15755 0.86986 0.49250
v 0.12828 0.85495 0.49250
v 0.10505 0.83172 0.49250
v 0.09014 0.80245 0.49250
v 0.08500 0.77000 0.49250
v 0.09014 0.73755 0.49250
v 0.10505 0.70828 0.49250
v 0.12828 0.68505 0.49250
v 0.15755 0.67014 0.49250
v 0.19000 0.66500 0.49250
v 0.22245 0.67014 0.49250
v 0.25172 0.68505 0.49250
v 0.27495 0.70828 0.49250
v 0.28986 0.73755 0.49250
v 0.29500 0.77000 0.51750
v 0.28986 0.80245 0.51750
v 0.27495 0.83172 0.51750
v 0.25172 0.85495 0.51750
v 0.22245 0.86986 0.51750
v 0.19000 0.87500 0.51750
v 0.15755 0.86986 0.51750
v 0.12828 0.85495 0.51750
v 0.10505 0.83172 0.51750
v 0.09014 0.80245 0.51750
v 0.08500 0.77000 0.51750
v 0.09014 0.73755 0.51750
v 0.10505 0.70828 0.51750
v 0.12828 0.68505 0.51750
v 0.15755 0.67014 0.51750
v 0.19000 0.66500 0.51750
v 0.22245 0.67014 0.51750
v 0.25172 0.68505 0.51750
v 0.27495 0.70828 0.51750
v 0.28986 0.73755 0.51750
v -2.56500 0.46500 -0.29000
v -2.43500 0.46500 -0.29000
v -2.43500 0.89500 -0.29000
v -2.56500 0.89500 -0.29000
v -2.56500 0.46500 0.49000
v -2.43500 0.46500 0.49000
v -2.43500 0.89500 0.49000
v -2.56500 0.89500 0.49000
v -2.55000 0.68000 0.06000
v -2.55000 0.72635 0.05266
v -2.55000 0.76817 0.03135
v -2.55000 0.80135 -0.00183
v -2.55000 0.82266 -0.04365
v -2.55000 0.83000 -0.09000
v -2.55000 0.82266 -0.13635
v -2.55000 0.80135 -0.17817
v -2.55000 0.76817 -0.21135
v -2.55000 0.72635 -0.23266
v -2.55000 0.68000 -0.24000
v -2.55000 0.63365 -0.23266
v -2.55000 0.59183 -0.21135
v -2.55000 0.55865 -0.17817
v -2.55000 0.53734 -0.13635
v -2.55000 0.53000 -0.09000
v -2.55000 0.53734 -0.04365
v -2.55000 0.55865 -0.00183
v -2.55000 0.59183 0.03135
v -2.55000 0.63365 0.05266
v -2.67000 0.68000 0.06000
v -2.67000 0.72635 0.05266
v -2.67000 0.76817 0.03135
v -2.67000 0.80135 -0.00183
v -2.67000 0.82266 -0.04365
v -2.67000 0.83000 -0.09000
v -2.67000 0.82266 -0.13635
v -2.67000 0.80135 -0.17817
v -2.67000 0.76817 -0.21135
v -2.67000 0.72635 -0.23266
v -2.67000 0.68000 -0.24000
v -2.67000 0.63365 -0.23266
v -2.67000 0.59183 -0.21135
v -2.67000 0.55865 -0.17817
v -2.67000 0.53734 -0.13635
v -2.67000 0.53000 -0.09000
v -2.67000 0.53734 -0.04365
v -2.67000 0.55865 -0.00183
v -2.67000 0.59183 0.03135
v -2.67000 0.63365 0.05266
v -2.66750 0.68000 0.01500
v -2.66750 0.71245 0.00986
v -2.66750 0.74172 -0.00505
v -2.66750 0.76495 -0.02828
v -2.66750 0.77986 -0.05755
v -2.66750 0.78500 -0.09000
v -2.66750 0.77986 -0.12245
v -2.66750 0.76495 -0.15172
v -2.66750 0.74172 -0.17495
v -2.66750 0.71245 -0.18986
v -2.66750 0.68000 -0.19500
v -2.66750 0.64755 -0.18986
v -2.66750 0.61828 -0.17495
v -2.66750 0.59505 -0.15172
v -2.66750 0.58014 -0.12245
v -2.66750 0.57500 -0.09000
v -2.66750 0.58014 -0.05755
v -2.66750 0.59505 -0.02828
v -2.66750 0.61828 -0.00505
v -2.66750 0.64755 0.00986
v -2.69250 0.68000 0.01500
v -2.69250 0.71245 0.00986
v -2.69250 0.74172 -0.00505
v -2.69250 0.76495 -0.02828
v -2.69250 0.77986 -0.05755
v -2.69250 0.78500 -0.09000
v -2.69250 0.77986 -0.12245
v -2.69250 0.76495 -0.15172
v -2.69250 0.74172 -0.17495
v -2.69250 0.71245 -0.18986
v -2.69250 0.68000 -0.19500
v -2.69250 0.64755 -0.18986
v -2.69250 0.61828 -0.17495
v -2.69250 0.59505 -0.15172
v -2.69250 0.58014 -0.12245
v -2.69250 0.57500 -0.09000
v -2.69250 0.58014 -0.05755
v -2.69250 0.59505 -0.02828
v -2.69250 0.61828 -0.00505
v -2.69250 0.64755 0.00986
v -2.55000 0.68000 0.44000
v -2.55000 0.72635 0.43266
v -2.55000 0.76817 0.41135
v -2.55000 0.80135 0.37817
v -2.55000 0.82266 0.33635
v -2.55000 0.83000 0.29000
v -2.55000 0.82266 0.24365
v -2.55000 0.80135 0.20183
v -2.55000 0.76817 0.16865
v -2.55000 0.72635 0.14734
v -2.55000 0.68000 0.14000
v -2.55000 0.63365 0.14734
v -2.55000 0.59183 0.16865
v -2.55000 0.55865 0.20183
v -2.55000 0.53734 0.24365
v -2.55000 0.53000 0.29000
v -2.55000 0.53734 0.33635
v -2.55000 0.55865 0.37817
v -2.55000 0.59183 0.41135
v -2.55000 0.63365 0.43266
v -2.67000 0.68000 0.44000
v -2.67000 0.72635 0.43266
v -2.67000 0.76817 0.41135
v -2.67000 0.80135 0.37817
v -2.67000 0.82266 0.33635
v -2.67000 0.83000 0.29000
v -2.67000 0.82266 0.24365
v -2.67000 0.80135 0.20183
v -2.67000 0.76817 0.16865
v -2.67000 0.72635 0.14734
v -2.67000 0.68000 0.14000
v -2.67000 0.63365 0.14734
v -2.67000 0.59183 0.16865
v -2.67000 0.55865 0.20183
v -2.67000 0.53734 0.24365
v -2.67000 0.53000 0.29000
v -2.67000 0.53734 0.33635
v -2.67000 0.55865 0.37817
v -2.67000 0.59183 0.41135
v -2.67000 0.63365 0.43266
v -2.66750 0.68000 0.39500
v -2.66750 0.71245 0.38986
v -2.66750 0.74172 0.37495
v -2.66750 0.76495 0.35172
v -2.66750 0.77986 0.32245
v -2.66750 0.78500 0.29000
v -2.66750 0.77986 0.25755
v -2.66750 0.76495 0.22828
v -2.66750 0.74172 0.20505
v -2.66750 0.71245 0.19014
v -2.66750 0.68000 0.18500
v -2.66750 0.64755 0.19014
v -2.66750 0.61828 0.20505
v -2.66750 0.59505 0.22828
v -2.66750 0.58014 0.25755
v -2.66750 0.57500 0.29000
v -2.66750 0.58014 0.32245
v -2.66750 0.59505 0.35172
v -2.66750 0.61828 0.37495
v -2.66750 0.64755 0.38986
v -2.69250 0.68000 0.39500
v -2.69250 0.71245 0.38986
v -2.69250 0.74172 0.37495
v -2.69250 0.76495 0.35172
v -2.69250 0.77986 0.32245
v -2.69250 0.78500 0.29000
v -2.69250 0.77986 0.25755
v -2.69250 0.76495 0.22828
v -2.69250 0.74172 0.20505
v -2.69250 0.71245 0.19014
v -2.69250 0.68000 0.18500
v -2.69250 0.64755 0.19014
v -2.69250 0.61828 0.20505
v -2.69250 0.59505 0.22828
v -2.69250 0.58014 0.25755
v -2.69250 0.57500 0.29000
v -2.69250 0.58014 0.32245
v -2.69250 0.59505 0.35172
v -2.69250 0.61828 0.37495
v -2.69250 0.64755 0.38986
v 2.43500 0.46500 -0.29000
v 2.56500 0.46500 -0.29000
v 2.56500 0.89500 -0.29000
v 2.43500 0.89500 -0.29000
v 2.43500 0.46500 0.49000
v 2.56500 0.46500 0.49000
v 2.56500 0.89500 0.49000
v 2.43500 0.89500 0.49000
v 2.55000 0.68000 0.06000
v 2.55000 0.72635 0.05266
v 2.55000 0.76817 0.03135
v 2.55000 0.80135 -0.00183
v 2.55000 0.82266 -0.04365
v 2.55000 0.83000 -0.09000
v 2.55000 0.82266 -0.13635
v 2.55000 0.80135 -0.17817
v 2.55000 0.76817 -0.21135
v 2.55000 0.72635 -0.23266
v 2.55000 0.68000 -0.24000
v 2.55000 0.63365 -0.23266
v 2.55000 0.59183 -0.21135
v 2.55000 0.55865 -0.17817
v 2.55000 0.53734 -0.13635
v 2.55000 0.53000 -0.09000
v 2.55000 0.53734 -0.04365
v 2.55000 0.55865 -0.00183
v 2.55000 0.59183 0.03135
v 2.55000 0.63365 0.05266
v 2.67000 0.68000 0.06000
v 2.67000 0.72635 0.05266
v 2.67000 0.76817 0.03135
v 2.67000 0.80135 -0.00183
v 2.67000 0.82266 -0.04365
v 2.67000 0.83000 -0.09000
v 2.67000 0.82266 -0.13635
v 2.67000 0.80135 -0.17817
v 2.67000 0.76817 -0.21135
v 2.67000 0.72635 -0.23266
v 2.67000 0.68000 -0.24000
v 2.67000 0.63365 -0.23266
v 2.67000 0.59183 -0.21135
v 2.67000 0.55865 -0.17817
v 2.67000 0.53734 -0.13635
v 2.67000 0.53000 -0.09000
v 2.67000 0.53734 -0.04365
v 2.67000 0.55865 -0.00183
v 2.67000 0.59183 0.03135
v 2.67000 0.63365 0.05266
v 2.66750 0.68000 0.01500
v 2.66750 0.71245 0.00986
v 2.66750 0.74172 -0.00505
v 2.66750 0.76495 -0.02828
v 2.66750 0.77986 -0.05755
v 2.66750 0.78500 -0.09000
v 2.66750 0.77986 -0.12245
v 2.66750 0.76495 -0.15172
v 2.66750 0.74172 -0.17495
v 2.66750 0.71245 -0.18986
v 2.66750 0.68000 -0.19500
v 2.66750 0.64755 -0.18986
v 2.66750 0.61828 -0.17495
v 2.66750 0.59505 -0.15172
v 2.66750 0.58014 -0.12245
v 2.66750 0.57500 -0.09000
v 2.66750 0.58014 -0.05755
v 2.66750 0.59505 -0.02828
v 2.66750 0.61828 -0.00505
v 2.66750 0.64755 0.00986
v 2.69250 0.68000 0.01500
v 2.69250 0.71245 0.00986
v 2.69250 0.74172 -0.00505
v 2.69250 0.76495 -0.02828
v 2.69250 0.77986 -0.05755
v 2.69250 0.78500 -0.09000
v 2.69250 0.77986 -0.12245
v 2.69250 0.76495 -0.15172
v 2.69250 0.74172 -0.17495
v 2.69250 0.71245 -0.18986
v 2.69250 0.68000 -0.19500
v 2.69250 0.64755 -0.18986
v 2.69250 0.61828 -0.17495
v 2.69250 0.59505 -0.15172
v 2.69250 0.58014 -0.12245
v 2.69250 0.57500 -0.09000
v 2.69250 0.58014 -0.05755
v 2.69250 0.59505 -0.02828
v 2.69250 0.61828 -0.00505
v 2.69250 0.64755 0.00986
v 2.55000 0.68000 0.44000
v 2.55000 0.72635 0.43266
v 2.55000 0.76817 0.41135
v 2.55000 0.80135 0.37817
v 2.55000 0.82266 0.33635
v 2.55000 0.83000 0.29000
v 2.55000 0.82266 0.24365
v 2.55000 0.80135 0.20183
v 2.55000 0.76817 0.16865
v 2.55000 0.72635 0.14734
v 2.55000 0.68000 0.14000
v 2.55000 0.63365 0.14734
v 2.55000 0.59183 0.16865
v 2.55000 0.55865 0.20183
v 2.55000 0.53734 0.24365
v 2.55000 0.53000 0.29000
v 2.55000 0.53734 0.33635
v 2.55000 0.55865 0.37817
v 2.55000 0.59183 0.41135
v 2.55000 0.63365 0.43266
v 2.67000 0.68000 0.44000
v 2.67000 0.72635 0.43266
v 2.67000 0.76817 0.41135
v 2.67000 0.80135 0.37817
v 2.67000 0.82266 0.33635
v 2.67000 0.83000 0.29000
v 2.67000 0.82266 0.24365
v 2.67000 0.80135 0.20183
v 2.67000 0.76817 0.16865
v 2.67000 0.72635 0.14734
v 2.67000 0.68000 0.14000
v 2.67000 0.63365 0.14734
v 2.67000 0.59183 0.16865
v 2.67000 0.55865 0.20183
v 2.67000 0.53734 0.24365
v 2.67000 0.53000 0.29000
v 2.67000 0.53734 0.33635
v 2.67000 0.55865 0.37817
v 2.67000 0.59183 0.41135
v 2.67000 0.63365 0.43266
v 2.66750 0.68000 0.39500
v 2.66750 0.71245 0.38986
v 2.66750 0.74172 0.37495
v 2.66750 0.76495 0.35172
v 2.66750 0.77986 0.32245
v 2.66750 0.78500 0.29000
v 2.66750 0.77986 0.25755
v 2.66750 0.76495 0.22828
v 2.66750 0.74172 0.20505
v 2.66750 0.71245 0.19014
v 2.66750 0.68000 0.18500
v 2.66750 0.64755 0.19014
v 2.66750 0.61828 0.20505
v 2.66750 0.59505 0.22828
v 2.66750 0.58014 0.25755
v 2.66750 0.57500 0.29000
v 2.66750 0.58014 0.32245
v 2.66750 0.59505 0.35172
v 2.66750 0.61828 0.37495
v 2.66750 0.64755 0.38986
v 2.69250 0.68000 0.39500
v 2.69250 0.71245 0.38986
v 2.69250 0.74172 0.37495
v 2.69250 0.76495 0.35172
v 2.69250 0.77986 0.32245
v 2.69250 0.78500 0.29000
v 2.69250 0.77986 0.25755
v 2.69250 0.76495 0.22828
v 2.69250 0.74172 0.20505
v 2.69250 0.71245 0.19014
v 2.69250 0.68000 0.18500
v 2.69250 0.64755 0.19014
v 2.69250 0.61828 0.20505
v 2.69250 0.59505 0.22828
v 2.69250 0.58014 0.25755
v 2.69250 0.57500 0.29000
v 2.69250 0.58014 0.32245
v 2.69250 0.59505 0.35172
v 2.69250 0.61828 0.37495
v 2.69250 0.64755 0.38986
v 1.53500 -0.22500 0.27500
v 2.16500 -0.22500 0.27500
v 2.16500 0.26500 0.27500
v 1.53500 0.26500 0.27500
v 1.53500 -0.22500 0.40500
v 2.16500 -0.22500 0.40500
v 2.16500 0.26500 0.40500
v 1.53500 0.26500 0.40500
v 1.98500 0.02000 0.38000
v 1.97839 0.06172 0.38000
v 1.95922 0.09935 0.38000
v 1.92935 0.12922 0.38000
v 1.89172 0.14839 0.38000
v 1.85000 0.15500 0.38000
v 1.80828 0.14839 0.38000
v 1.77065 0.12922 0.38000
v 1.74078 0.09935 0.38000
v 1.72161 0.06172 0.38000
v 1.71500 0.02000 0.38000
v 1.72161 -0.02172 0.38000
v 1.74078 -0.05935 0.38000
v 1.77065 -0.08922 0.38000
v 1.80828 -0.10839 0.38000
v 1.85000 -0.11500 0.38000
v 1.89172 -0.10839 0.38000
v 1.92935 -0.08922 0.38000
v 1.95922 -0.05935 0.38000
v 1.97839 -0.02172 0.38000
v 1.98500 0.02000 0.51000
v 1.97839 0.06172 0.51000
v 1.95922 0.09935 0.51000
v 1.92935 0.12922 0.51000
v 1.89172 0.14839 0.51000
v 1.85000 0.15500 0.51000
v 1.80828 0.14839 0.51000
v 1.77065 0.12922 0.51000
v 1.74078 0.09935 0.51000
v 1.72161 0.06172 0.51000
v 1.71500 0.02000 0.51000
v 1.72161 -0.02172 0.51000
v 1.74078 -0.05935 0.51000
v 1.77065 -0.08922 0.51000
v 1.80828 -0.10839 0.51000
v 1.85000 -0.11500 0.51000
v 1.89172 -0.10839 0.51000
v 1.92935 -0.08922 0.51000
v 1.95922 -0.05935 0.51000
v 1.97839 -0.02172 0.51000
v 1.93500 0.02000 0.50750
v 1.93084 0.04627 0.50750
v 1.91877 0.06996 0.50750
v 1.89996 0.08877 0.50750
v 1.87627 0.10084 0.50750
v 1.85000 0.10500 0.50750
v 1.82373 0.10084 0.50750
v 1.80004 0.08877 0.50750
v 1.78123 0.06996 0.50750
v 1.76916 0.04627 0.50750
v 1.76500 0.02000 0.50750
v 1.76916 -0.00627 0.50750
v 1.78123 -0.02996 0.50750
v 1.80004 -0.04877 0.50750
v 1.82373 -0.06084 0.50750
v 1.85000 -0.06500 0.50750
v 1.87627 -0.06084 0.50750
v 1.89996 -0.04877 0.50750
v 1.91877 -0.02996 0.50750
v 1.93084 -0.00627 0.50750
v 1.93500 0.02000 0.53250
v 1.93084 0.04627 0.53250
v 1.91877 0.06996 0.53250
v 1.89996 0.08877 0.53250
v 1.87627 0.10084 0.53250
v 1.85000 0.10500 0.53250
v 1.82373 0.10084 0.53250
v 1.80004 0.08877 0.53250
v 1.78123 0.06996 0.53250
v 1.76916 0.04627 0.53250
v 1.76500 0.02000 0.53250
v 1.76916 -0.00627 0.53250
v 1.78123 -0.02996 0.53250
v 1.80004 -0.04877 0.53250
v 1.82373 -0.06084 0.53250
v 1.85000 -0.06500 0.53250
v 1.87627 -0.06084 0.53250
v 1.89996 -0.04877 0.53250
v 1.91877 -0.02996 0.53250
v 1.93084 -0.00627 0.53250
o left_lens
usemtl lens
f 1 4 3 2
f 5 6 7 8
f 1 2 6 5
f 2 3 7 6
f 3 4 8 7
f 4 1 5 8
o left_frame_top
usemtl frame
f 9 12 11 10
f 13 14 15 16
f 9 10 14 13
f 10 11 15 14
f 11 12 16 15
f 12 9 13 16
o left_frame_bottom
usemtl frame
f 17 20 19 18
f 21 22 23 24
f 17 18 22 21
f 18 19 23 22
f 19 20 24 23
f 20 17 21 24
o left_frame_side
usemtl frame
f 25 28 27 26
f 29 30 31 32
f 25 26 30 29
f 26 27 31 30
f 27 28 32 31
f 28 25 29 32
o left_frame_side
usemtl frame
f 33 36 35 34
f 37 38 39 40
f 33 34 38 37
f 34 35 39 38
f 35 36 40 39
f 36 33 37 40
o right_lens
usemtl lens
f 41 44 43 42
f 45 46 47 48
f 41 42 46 45
f 42 43 47 46
f 43 44 48 47
f 44 41 45 48
o right_frame_top
usemtl frame
f 49 52 51 50
f 53 54 55 56
f 49 50 54 53
f 50 51 55 54
f 51 52 56 55
f 52 49 53 56
o right_frame_bottom
usemtl frame
f 57 60 59 58
f 61 62 63 64
f 57 58 62 61
f 58 59 63 62
f 59 60 64 63
f 60 57 61 64
o right_frame_side
usemtl frame
f 65 68 67 66
f 69 70 71 72
f 65 66 70 69
f 66 67 71 70
f 67 68 72 71
f 68 65 69 72
o right_frame_side
usemtl frame
f 73 76 75 74
f 77 78 79 80
f 73 74 78 77
f 74 75 79 78
f 75 76 80 79
f 76 73 77 80
o bridge
usemtl frame
f 81 84 83 82
f 85 86 87 88
f 81 82 86 85
f 82 83 87 86
f 83 84 88 87
f 84 81 85 88
o nose_pad_left
usemtl rubber
f 89 92 91 90
f 93 94 95 96
f 89 90 94 93
f 90 91 95 94
f 91 92 96 95
f 92 89 93 96
o nose_pad_right
usemtl rubber
f 97 100 99 98
f 101 102 103 104
f 97 98 102 101
f 98 99 103 102
f 99 100 104 103
f 100 97 101 104
o left_hinge
usemtl metal
f 105 108 107 106
f 109 110 111 112
f 105 106 110 109
f 106 107 111 110
f 107 108 112 111
f 108 105 109 112
o left_temple
usemtl frame
f 113 116 115 114
f 117 118 119 120
f 113 114 118 117
f 114 115 119 118
f 115 116 120 119
f 116 113 117 120
o left_vibration_motor
usemtl motor
f 121 124 123 122
f 125 126 127 128
f 121 122 126 125
f 122 123 127 126
f 123 124 128 127
f 124 121 125 128
o right_hinge
usemtl metal
f 129 132 131 130
f 133 134 135 136
f 129 130 134 133
f 130 131 135 134
f 131 132 136 135
f 132 129 133 136
o right_temple
usemtl frame
f 137 140 139 138
f 141 142 143 144
f 137 138 142 141
f 138 139 143 142
f 139 140 144 143
f 140 137 141 144
o right_vibration_motor
usemtl motor
f 145 148 147 146
f 149 150 151 152
f 145 146 150 149
f 146 147 151 150
f 147 148 152 151
f 148 145 149 152
o ultrasonic_sensor_02_forward_board
usemtl sensor_board
f 153 156 155 154
f 157 158 159 160
f 153 154 158 157
f 154 155 159 158
f 155 156 160 159
f 156 153 157 160
o sensor_02_transducer_1_rim
usemtl sensor_rim
f 180 179 178 177 176 175 174 173 172 171 170 169 168 167 166 165 164 163 162 161
f 181 182 183 184 185 186 187 188 189 190 191 192 193 194 195 196 197 198 199 200
f 161 162 182 181
f 162 163 183 182
f 163 164 184 183
f 164 165 185 184
f 165 166 186 185
f 166 167 187 186
f 167 168 188 187
f 168 169 189 188
f 169 170 190 189
f 170 171 191 190
f 171 172 192 191
f 172 173 193 192
f 173 174 194 193
f 174 175 195 194
f 175 176 196 195
f 176 177 197 196
f 177 178 198 197
f 178 179 199 198
f 179 180 200 199
f 180 161 181 200
o sensor_02_transducer_1_face
usemtl sensor_face
f 220 219 218 217 216 215 214 213 212 211 210 209 208 207 206 205 204 203 202 201
f 221 222 223 224 225 226 227 228 229 230 231 232 233 234 235 236 237 238 239 240
f 201 202 222 221
f 202 203 223 222
f 203 204 224 223
f 204 205 225 224
f 205 206 226 225
f 206 207 227 226
f 207 208 228 227
f 208 209 229 228
f 209 210 230 229
f 210 211 231 230
f 211 212 232 231
f 212 213 233 232
f 213 214 234 233
f 214 215 235 234
f 215 216 236 235
f 216 217 237 236
f 217 218 238 237
f 218 219 239 238
f 219 220 240 239
f 220 201 221 240
o sensor_02_transducer_2_rim
usemtl sensor_rim
f 260 259 258 257 256 255 254 253 252 251 250 249 248 247 246 245 244 243 242 241
f 261 262 263 264 265 266 267 268 269 270 271 272 273 274 275 276 277 278 279 280
f 241 242 262 261
f 242 243 263 262
f 243 244 264 263
f 244 245 265 264
f 245 246 266 265
f 246 247 267 266
f 247 248 268 267
f 248 249 269 268
f 249 250 270 269
f 250 251 271 270
f 251 252 272 271
f 252 253 273 272
f 253 254 274 273
f 254 255 275 274
f 255 256 276 275
f 256 257 277 276
f 257 258 278 277
f 258 259 279 278
f 259 260 280 279
f 260 241 261 280
o sensor_02_transducer_2_face
usemtl sensor_face
f 300 299 298 297 296 295 294 293 292 291 290 289 288 287 286 285 284 283 282 281
f 301 302 303 304 305 306 307 308 309 310 311 312 313 314 315 316 317 318 319 320
f 281 282 302 301
f 282 283 303 302
f 283 284 304 303
f 284 285 305 304
f 285 286 306 305
f 286 287 307 306
f 287 288 308 307
f 288 289 309 308
f 289 290 310 309
f 290 291 311 310
f 291 292 312 311
f 292 293 313 312
f 293 294 314 313
f 294 295 315 314
f 295 296 316 315
f 296 297 317 316
f 297 298 318 317
f 298 299 319 318
f 299 300 320 319
f 300 281 301 320
o ultrasonic_sensor_01_left_side_board
usemtl sensor_board
f 321 324 323 322
f 325 326 327 328
f 321 322 326 325
f 322 323 327 326
f 323 324 328 327
f 324 321 325 328
o sensor_01_left_transducer_1_rim
usemtl sensor_rim
f 348 347 346 345 344 343 342 341 340 339 338 337 336 335 334 333 332 331 330 329
f 349 350 351 352 353 354 355 356 357 358 359 360 361 362 363 364 365 366 367 368
f 329 330 350 349
f 330 331 351 350
f 331 332 352 351
f 332 333 353 352
f 333 334 354 353
f 334 335 355 354
f 335 336 356 355
f 336 337 357 356
f 337 338 358 357
f 338 339 359 358
f 339 340 360 359
f 340 341 361 360
f 341 342 362 361
f 342 343 363 362
f 343 344 364 363
f 344 345 365 364
f 345 346 366 365
f 346 347 367 366
f 347 348 368 367
f 348 329 349 368
o sensor_01_left_transducer_1_face
usemtl sensor_face
f 388 387 386 385 384 383 382 381 380 379 378 377 376 375 374 373 372 371 370 369
f 389 390 391 392 393 394 395 396 397 398 399 400 401 402 403 404 405 406 407 408
f 369 370 390 389
f 370 371 391 390
f 371 372 392 391
f 372 373 393 392
f 373 374 394 393
f 374 375 395 394
f 375 376 396 395
f 376 377 397 396
f 377 378 398 397
f 378 379 399 398
f 379 380 400 399
f 380 381 401 400
f 381 382 402 401
f 382 383 403 402
f 383 384 404 403
f 384 385 405 404
f 385 386 406 405
f 386 387 407 406
f 387 388 408 407
f 388 369 389 408
o sensor_01_left_transducer_2_rim
usemtl sensor_rim
f 428 427 426 425 424 423 422 421 420 419 418 417 416 415 414 413 412 411 410 409
f 429 430 431 432 433 434 435 436 437 438 439 440 441 442 443 444 445 446 447 448
f 409 410 430 429
f 410 411 431 430
f 411 412 432 431
f 412 413 433 432
f 413 414 434 433
f 414 415 435 434
f 415 416 436 435
f 416 417 437 436
f 417 418 438 437
f 418 419 439 438
f 419 420 440 439
f 420 421 441 440
f 421 422 442 441
f 422 423 443 442
f 423 424 444 443
f 424 425 445 444
f 425 426 446 445
f 426 427 447 446
f 427 428 448 447
f 428 409 429 448
o sensor_01_left_transducer_2_face
usemtl sensor_face
f 468 467 466 465 464 463 462 461 460 459 458 457 456 455 454 453 452 451 450 449
f 469 470 471 472 473 474 475 476 477 478 479 480 481 482 483 484 485 486 487 488
f 449 450 470 469
f 450 451 471 470
f 451 452 472 471
f 452 453 473 472
f 453 454 474 473
f 454 455 475 474
f 455 456 476 475
f 456 457 477 476
f 457 458 478 477
f 458 459 479 478
f 459 460 480 479
f 460 461 481 480
f 461 462 482 481
f 462 463 483 482
f 463 464 484 483
f 464 465 485 484
f 465 466 486 485
f 466 467 487 486
f 467 468 488 487
f 468 449 469 488
o ultrasonic_sensor_03_right_side_board
usemtl sensor_board
f 489 492 491 490
f 493 494 495 496
f 489 490 494 493
f 490 491 495 494
f 491 492 496 495
f 492 489 493 496
o sensor_03_right_transducer_1_rim
usemtl sensor_rim
f 516 515 514 513 512 511 510 509 508 507 506 505 504 503 502 501 500 499 498 497
f 517 518 519 520 521 522 523 524 525 526 527 528 529 530 531 532 533 534 535 536
f 497 498 518 517
f 498 499 519 518
f 499 500 520 519
f 500 501 521 520
f 501 502 522 521
f 502 503 523 522
f 503 504 524 523
f 504 505 525 524
f 505 506 526 525
f 506 507 527 526
f 507 508 528 527
f 508 509 529 528
f 509 510 530 529
f 510 511 531 530
f 511 512 532 531
f 512 513 533 532
f 513 514 534 533
f 514 515 535 534
f 515 516 536 535
f 516 497 517 536
o sensor_03_right_transducer_1_face
usemtl sensor_face
f 556 555 554 553 552 551 550 549 548 547 546 545 544 543 542 541 540 539 538 537
f 557 558 559 560 561 562 563 564 565 566 567 568 569 570 571 572 573 574 575 576
f 537 538 558 557
f 538 539 559 558
f 539 540 560 559
f 540 541 561 560
f 541 542 562 561
f 542 543 563 562
f 543 544 564 563
f 544 545 565 564
f 545 546 566 565
f 546 547 567 566
f 547 548 568 567
f 548 549 569 568
f 549 550 570 569
f 550 551 571 570
f 551 552 572 571
f 552 553 573 572
f 553 554 574 573
f 554 555 575 574
f 555 556 576 575
f 556 537 557 576
o sensor_03_right_transducer_2_rim
usemtl sensor_rim
f 596 595 594 593 592 591 590 589 588 587 586 585 584 583 582 581 580 579 578 577
f 597 598 599 600 601 602 603 604 605 606 607 608 609 610 611 612 613 614 615 616
f 577 578 598 597
f 578 579 599 598
f 579 580 600 599
f 580 581 601 600
f 581 582 602 601
f 582 583 603 602
f 583 584 604 603
f 584 585 605 604
f 585 586 606 605
f 586 587 607 606
f 587 588 608 607
f 588 589 609 608
f 589 590 610 609
f 590 591 611 610
f 591 592 612 611
f 592 593 613 612
f 593 594 614 613
f 594 595 615 614
f 595 596 616 615
f 596 577 597 616
o sensor_03_right_transducer_2_face
usemtl sensor_face
f 636 635 634 633 632 631 630 629 628 627 626 625 624 623 622 621 620 619 618 617
f 637 638 639 640 641 642 643 644 645 646 647 648 649 650 651 652 653 654 655 656
f 617 618 638 637
f 618 619 639 638
f 619 620 640 639
f 620 621 641 640
f 621 622 642 641
f 622 623 643 642
f 623 624 644 643
f 624 625 645 644
f 625 626 646 645
f 626 627 647 646
f 627 628 648 647
f 628 629 649 648
f 629 630 650 649
f 630 631 651 650
f 631 632 652 651
f 632 633 653 652
f 633 634 654 653
f 634 635 655 654
f 635 636 656 655
f 636 617 637 656
o esp32_cam_board
usemtl camera_board
f 657 660 659 658
f 661 662 663 664
f 657 658 662 661
f 658 659 663 662
f 659 660 664 663
f 660 657 661 664
o esp32_cam_lens_rim
usemtl sensor_rim
f 684 683 682 681 680 679 678 677 676 675 674 673 672 671 670 669 668 667 666 665
f 685 686 687 688 689 690 691 692 693 694 695 696 697 698 699 700 701 702 703 704
f 665 666 686 685
f 666 667 687 686
f 667 668 688 687
f 668 669 689 688
f 669 670 690 689
f 670 671 691 690
f 671 672 692 691
f 672 673 693 692
f 673 674 694 693
f 674 675 695 694
f 675 676 696 695
f 676 677 697 696
f 677 678 698 697
f 678 679 699 698
f 679 680 700 699
f 680 681 701 700
f 681 682 702 701
f 682 683 703 702
f 683 684 704 703
f 684 665 685 704
o esp32_cam_lens_glass
usemtl camera_glass
f 724 723 722 721 720 719 718 717 716 715 714 713 712 711 710 709 708 707 706 705
f 725 726 727 728 729 730 731 732 733 734 735 736 737 738 739 740 741 742 743 744
f 705 706 726 725
f 706 707 727 726
f 707 708 728 727
f 708 709 729 728
f 709 710 730 729
f 710 711 731 730
f 711 712 732 731
f 712 713 733 732
f 713 714 734 733
f 714 715 735 734
f 715 716 736 735
f 716 717 737 736
f 717 718 738 737
f 718 719 739 738
f 719 720 740 739
f 720 721 741 740
f 721 722 742 741
f 722 723 743 742
f 723 724 744 743
f 724 705 725 744

